<?xml version="1.0" encoding="UTF-8"?>
<!-- Created with Inkscape (http://www.inkscape.org/) -->
<svg width="100%" version="1.1" viewBox="0 0 20.957 20.551" xmlns="http://www.w3.org/2000/svg" xmlns:cc="http://creativecommons.org/ns#" xmlns:dc="http://purl.org/dc/elements/1.1/" xmlns:rdf="http://www.w3.org/1999/02/22-rdf-syntax-ns#">
 <metadata>
  <rdf:RDF>
   <cc:Work rdf:about="">
    <dc:format>image/svg+xml</dc:format>
    <dc:type rdf:resource="http://purl.org/dc/dcmitype/StillImage"/>
    <dc:title/>
   </cc:Work>
  </rdf:RDF>
 </metadata>
 <g transform="translate(-27.319 -150.65)">
  <g transform="matrix(.26458 0 0 .26458 13.427 145.7)" fill="#00f">
   <path d="m88.842 96.375c-6.0624-0.22737-12.196-1.9056-17.311-5.0947 12.338 5.0618 27.624 4.0194 38.369-4.3717 12.113-9.0098 17.153-26.531 11-40.415-2.9887-7.0143-8.8848-12.546-15.929-15.387-6.4126-2.9238-13.948-3.1876-20.567-0.81212-2.424 0.75697-4.7894 1.9122-7.1165 2.808 9.5136-8.6336 24.932-8.9652 35.383-1.7167 11.51 7.3741 16.924 22.275 13.964 35.454-2.4696 12.251-11.594 22.8-23.272 27.1-4.565 1.7597-9.5968 2.5836-14.521 2.435zm-16.456-4.6885c-0.10316-0.06264 0.03504 0.06078 0 0zm5.3058-58.823c-0.06973-0.03566-0.01316 0.04508 0 0zm9.2357 57.946c-12.266-0.35995-23.805-7.7864-29.672-18.467-7.5882-13.102-5.9352-30.744 3.915-42.244 2.778-3.2553 6.3542-6.4627 10.048-8.1925-11.415 8.6059-18.136 23.836-14.938 38.105 2.9628 14.795 16.619 27.014 31.895 27.148 11.101 0.17825 22.079-6.5529 27.041-16.469 2.244-4.5943 2.91-9.7292 3.429-14.758 1.3273 5.4182 0.41257 11.594-1.9006 16.772-5.0019 11.489-17.434 18.614-29.817 18.105zm-16.473-68.462c-0.01565-0.03074-0.06047 0.07435 0 0zm7.9286 57.837c-10.991-3.7182-18.768-14.731-19.148-26.284-0.85498-13.33 7.5584-26.259 19.599-31.714 13.796-6.6893 31.502-3.4594 42.13 7.5684 6.8748 6.8437 11.024 16.633 10.737 26.291-1.3692-9.5497-6.0639-18.96-13.543-25.24-9.099-7.9942-22.525-10.588-33.962-6.6072-10.67 3.4611-19.525 12.722-21.258 24.01-1.3844 9.4858 1.2886 19.908 8.6503 26.398 2.0441 2.0556 4.8042 3.7989 6.7943 5.5781z" fill="#fff" stroke-width=".014111"/>
  </g>
 </g>
</svg>
